<?xml version="1.0" encoding="UTF-8"?>
<svg id="Layer_1" xmlns="http://www.w3.org/2000/svg" viewBox="0 0 64 64">
  <path d="M58.65997,15.01001v39.28998c0,2.41003-1.96002,4.37-4.35999,4.37H9.69995c-2.40997,0-4.37-1.95996-4.37-4.37V9.70001c0-2.41003,1.96002-4.37,4.37-4.37h42.98004c2.26001-1.60004,4.42999-2.84003,6.63-3.81.03998-.02002.07001-.03003.10999-.04999-1.48999-.93005-3.23999-1.47003-5.12-1.47003H9.69995C4.34998,0,0,4.35004,0,9.70001v44.59998c0,5.35004,4.34998,9.70001,9.69995,9.70001h44.60004c5.33997,0,9.70001-4.34998,9.70001-9.70001V9.72998c-1.83002,1.78003-3.62,3.52002-5.34003,5.28003Z"/>
  <path d="M28.896,36.26276c-1.2514,1.91473-1.59344,1.93512-2.95258.16547-2.32458-3.02673-4.73822-5.97754-7.49426-8.62543-2.49152-2.39374-5.76093-2.42322-7.94568-.12457-2.24548,2.36261-2.08325,5.81342.51105,8.08582,3.77673,3.30817,7.04614,7.06274,10.0376,11.07104,1.78113,2.38647,3.48059,4.8338,5.25085,7.22852,1.30188,1.76111,2.76941,1.60712,3.7804-.36182.2522-.49109.45447-1.00751.69159-1.50665,5.32727-11.21344,11.38489-21.98236,19.07916-31.78223,4.24487-5.40643,9.22845-10.08893,14.14319-14.84668v-1.24921c-1.1441-1.01135-2.31116-.56531-3.47742-.05261-3.45294,1.51801-6.51373,3.65491-9.40485,6.04004-8.91742,7.35675-15.93536,16.34412-22.21906,25.95831Z"/>
</svg>