<?xml version="1.0" encoding="UTF-8"?>
<svg id="Layer_1" xmlns="http://www.w3.org/2000/svg" viewBox="0 0 63.99995 64">
  <path d="M54.29768,64H9.70232c-5.3499,0-9.70232-4.35252-9.70232-9.70237V9.70232C0,4.35247,4.35242,0,9.70232,0h44.59536c5.34985,0,9.70227,4.35247,9.70227,9.70232v44.59531c0,5.34985-4.35242,9.70237-9.70227,9.70237ZM9.70232,5.33298c-2.40927,0-4.36934,1.96008-4.36934,4.36934v44.59531c0,2.40932,1.96008,4.3694,4.36934,4.3694h44.59536c2.40921,0,4.36929-1.96008,4.36929-4.3694V9.70232c0-2.40927-1.96008-4.36934-4.36929-4.36934H9.70232Z"/>
</svg>